<?xml version="1.0" encoding="UTF-8"?>
<svg width="103px" height="105px" viewBox="0 0 103 105" version="1.1" xmlns="http://www.w3.org/2000/svg" xmlns:xlink="http://www.w3.org/1999/xlink">
    <title>TUMERIC Logo</title>
    <g transform="translate(1.000000, 1.000000)" stroke="#4a4f59" stroke-width="1" fill="none" fill-rule="evenodd">
        <g id="circles" transform="translate(0.000000, -0.000000)" fill="#4a4f59">
            <ellipse cx="52.3430657" cy="51.3225806" rx="9.34306569" ry="10.3225806"/>
            <ellipse cx="17.6058394" cy="82.1935484" rx="5.60583942" ry="6.19354839"/>
            <ellipse cx="25.8029197" cy="11.0967742" rx="2.80291971" ry="3.09677419"/>
            <ellipse cx="52.6715328" cy="5.16129032" rx="4.67153285" ry="5.16129032"/>
            <ellipse cx="84.7372263" cy="18.1290323" rx="3.73722628" ry="4.12903226"/>
            <ellipse cx="83.8029197" cy="43.0967742" rx="2.80291971" ry="3.09677419"/>
            <ellipse cx="70.8029197" cy="80.0967742" rx="2.80291971" ry="3.09677419"/>
            <ellipse cx="94.4744525" cy="67.1532257" rx="6.4744525" ry="7.15322575"/>
            <ellipse cx="51.6058394" cy="97.1935484" rx="5.60583942" ry="6.19354839"/>
            <ellipse cx="28.7372263" cy="37.1290323" rx="3.73722628" ry="4.12903226"/>
            <ellipse cx="4.67153285" cy="47.1612903" rx="4.67153285" ry="5.16129032"/>
        </g>
        <g id="lines" transform="translate(3.500000, 4.500000)" stroke-linecap="square" stroke-width="3">
            <line x1="14" y1="78" x2="48.5" y2="46.5"/>
            <line x1="48.5" y1="47.5" x2="48.5" y2="89.5"/>
            <line x1="80" y1="39" x2="48.5" y2="47.5"/>
            <line x1="22" y1="7" x2="1" y2="44"/>
            <line x1="67.5" y1="75.5" x2="48.5" y2="46.5"/>
            <line x1="48.5" y1="46.5" x2="93" y2="63"/>
            <line x1="67.5" y1="75.5" x2="93" y2="63"/>
            <line x1="81" y1="39" x2="93" y2="62"/>
            <line x1="49.5" y1="0.5" x2="48.5" y2="47.5"/>
            <line x1="82" y1="14" x2="48.5" y2="47.5"/>
            <line x1="22" y1="6" x2="48.5" y2="44.5"/>
            <line x1="49" y1="0" x2="82" y2="14"/>
            <line x1="25.5" y1="32.5" x2="48.4671533" y2="47.516129"/>
            <line x1="3.5" y1="42.5" x2="49.5" y2="47.5"/>
            <line x1="14" y1="78" x2="48" y2="94"/>
        </g>
    </g>
</svg>
